<?xml version="1.0" encoding="utf-8"?>
<!-- Svg Vector Icons : http://www.onlinewebfonts.com/icon -->
<!DOCTYPE svg PUBLIC "-//W3C//DTD SVG 1.1//EN" "http://www.w3.org/Graphics/SVG/1.1/DTD/svg11.dtd">
<svg version="1.1" xmlns="http://www.w3.org/2000/svg" xmlns:xlink="http://www.w3.org/1999/xlink" x="0px" y="0px" viewBox="0 0 256 256" enable-background="new 0 0 256 256" xml:space="preserve">
<metadata> Svg Vector Icons : http://www.onlinewebfonts.com/icon </metadata>
<g><g><g><path fill="#000000" d="M19.4,18.5c-2.1,0.5-5,2.2-6.2,3.4c-0.6,0.6-1.5,2-2.1,3.2L10,27.2v96.7c0,88.3,0,96.9,0.8,98.4c1.2,2.5,3.5,4.9,6,6.1l2.2,1.1l62.9,0.1c49.9,0.1,63.2,0,64.1-0.5c2.6-1.3,3-4.4,0.8-6.4c-1-0.9-1.4-0.9-63.7-0.9H20.5l-1.4-1.4l-1.4-1.4V143V66.9h106.1H230v27.2v27.3l1.2,1.1c2.1,2.2,5.9,1.1,6.6-1.8c0.1-0.6,0.2-21.8,0.1-47.3l-0.1-46.3l-1.3-2.3c-1.5-2.8-2.7-3.9-5.5-5.4l-2.1-1.1l-104-0.1C67.6,18.2,20.2,18.3,19.4,18.5z M228.9,27.6l1.1,1.3v15v15H123.9H17.8V44.2c0-15.7,0.1-16.4,2.3-17.6c0.9-0.5,22.2-0.6,104.4-0.5l103.3,0.1L228.9,27.6z"/><path fill="#000000" d="M30.4,35.5c-2.4,1.3-4.2,4.2-4.2,6.9c0,5.9,6.8,9.9,12,6.9c5.4-3.1,5.3-11.1-0.2-13.9C35.3,34.2,33,34.2,30.4,35.5z"/><path fill="#000000" d="M55.6,35.1c-1.7,0.8-3.8,2.9-4.4,4.7c-1.9,4.9,2.2,10.7,7.6,10.7c2.3,0,5.2-1.5,6.5-3.4c1.6-2.2,1.7-6.2,0.3-8.6C63.6,35.2,59,33.6,55.6,35.1z"/><path fill="#000000" d="M80,35.1c-2,0.8-4.4,3.7-4.7,5.7c-1.2,6.6,5.6,11.7,11.6,8.7c2.9-1.5,4-3.4,4-7c0-2.5-0.2-3.3-1.1-4.7C87.6,35,83.2,33.7,80,35.1z"/><path fill="#000000" d="M173.5,132.9c-12.8,2.4-24.2,11.3-29.5,23.1c-2.7,6-3.5,9.6-3.4,17.1c0,6,0.2,7.3,1.3,11c4.1,13.5,14.3,23.7,27.8,27.8c3.7,1.1,5,1.3,11,1.3c5.7,0,7.4-0.1,10.5-1c4.7-1.4,8.9-3.2,12.5-5.7l2.9-1.9l2,1.7c1.1,1,6.6,6.4,12.3,12.1c18.4,18.4,19.7,19.6,21.4,19.6c2,0,3.8-1.8,3.8-3.9c0-1.4-1.6-3.1-16.7-18.2c-9.2-9.2-16.7-16.9-16.7-17c0-0.2,0.9-1.6,1.9-3.2c10.8-15.9,8.8-37.4-4.7-51.1c-5.2-5.3-11.5-8.9-18.8-10.8C186.4,132.2,178.3,132,173.5,132.9z M190.8,141.7c8.8,2.8,15.9,9.1,19.7,17.4c10,21.6-5.8,46.3-29.6,46.3c-5.4,0-9.7-1.1-14.7-3.6c-10.9-5.4-17.9-16.7-17.9-29.1c0-7.4,2.6-14.6,7.3-20.5c4.2-5.3,11.6-9.9,18.3-11.4C178.7,139.8,186,140.2,190.8,141.7z"/></g></g></g>
</svg>